Coordinates
version=1
nRows=11
nColumns=46
inDegrees=yes

Units are S.I. units (second, meters, Newtons, ...)
Angles are in degrees.

endheader
time	pelvis_tilt	pelvis_list	pelvis_rotation	pelvis_tx	pelvis_ty	pelvis_tz	bb_angle	bb_tx	bb_ty	bb_tz	hip_flexion_r	hip_adduction_r	hip_rotation_r	knee_angle_r	knee_angle_r_beta	ankle_angle_r	subtalar_angle_r	mtp_angle_r	crank_angle_r	hip_flexion_l	hip_adduction_l	hip_rotation_l	knee_angle_l	knee_angle_l_beta	ankle_angle_l	subtalar_angle_l	mtp_angle_l	crank_angle_l	lumbar_extension	lumbar_bending	lumbar_rotation	arm_flex_r	arm_add_r	arm_rot_r	elbow_flex_r	pro_sup_r	wrist_flex_r	wrist_dev_r	arm_flex_l	arm_add_l	arm_rot_l	elbow_flex_l	pro_sup_l	wrist_flex_l	wrist_dev_l
      5.00000000	     -9.41018598	      6.50897520	      2.85798465	      0.18577851	      1.04645146	     -0.21685146	      0.00000000	      0.50000000	      0.00000000	      0.25000000	     35.27007513	     -9.35186090	      2.38485522	     31.98478155	      0.55823975	     -1.22042045	     -0.42770444	      0.00000000	      0.00000000	     74.03513510	      0.28795386	      5.82928876	    117.50650882	      2.05087547	      8.09296014	     -0.49108938	      0.00000000	      0.00000000	    -68.23935550	     -4.98137050	    -14.25933719	     84.01355259	    -13.56013116	     27.69254834	     61.38424970	     41.64253273	      0.00000000	      0.00000000	     81.12062213	    -25.10262533	     20.07515864	     78.55016674	     46.97173191	      0.00000000	      0.00000000
      5.00500000	     -9.75055695	      6.86777331	      3.37557732	      0.18560410	      1.04681728	     -0.21614714	      0.00000000	      0.50000000	      0.00000000	      0.25000000	     34.64422291	     -9.88990253	      2.11632075	     31.40632959	      0.54814386	     -2.00031920	     -0.30374720	      0.00000000	      0.00000000	     75.71938568	      0.68622588	      5.74284823	    117.74355183	      2.05501265	      8.07871222	     -0.20645925	      0.00000000	      0.00000000	    -68.12312751	     -5.22622615	    -14.83632287	     83.79975939	    -13.79102256	     27.53521640	     61.37484801	     41.66687894	      0.00000000	      0.00000000	     81.55472027	    -24.83070752	     20.27418972	     78.54046552	     46.98080346	      0.00000000	      0.00000000
      5.01000000	    -10.06114577	      7.14656615	      3.91046297	      0.18515220	      1.04732868	     -0.21540000	      0.00000000	      0.50000000	      0.00000000	      0.25000000	     34.13237627	    -10.31984726	      1.82894920	     31.09148864	      0.54264885	     -3.14033307	     -0.93612748	      0.00000000	      0.00000000	     77.31775796	      1.04780233	      5.74301659	    117.81118522	      2.05619308	      8.20245370	      0.50615735	      0.00000000	      0.00000000	    -68.08171099	     -5.62766691	    -14.84599084	     82.84166015	    -14.70637507	     26.06887472	     62.42459551	     42.11808824	      0.00000000	      0.00000000	     82.90449303	    -24.02836318	     22.40127894	     77.11190166	     46.89022982	      0.00000000	      0.00000000
      5.01500000	    -10.32500129	      7.47845187	      4.46298703	      0.18455054	      1.04816210	     -0.21512307	      0.00000000	      0.50000000	      0.00000000	      0.25000000	     33.65662745	    -10.87987883	      1.51114295	     30.98645086	      0.54081559	     -3.83526337	     -1.06512262	      0.00000000	      0.00000000	     78.72287885	      1.55640117	      5.60535616	    117.62567609	      2.05295533	      8.19591095	      0.87354553	      0.00000000	      0.00000000	    -68.11577555	     -5.69461243	    -15.29648519	     82.74950589	    -14.98788150	     25.92950072	     62.39308438	     42.15305990	      0.00000000	      0.00000000	     83.33433811	    -23.72754198	     22.52251236	     77.12204794	     46.89226679	      0.00000000	      0.00000000
      5.02000000	    -10.67148343	      7.72740467	      5.00400760	      0.18389846	      1.04893813	     -0.21472893	      0.00000000	      0.50000000	      0.00000000	      0.25000000	     33.38712408	    -11.31848378	      1.22477403	     31.09711210	      0.54274699	     -4.63889375	     -1.40248893	      0.00000000	      0.00000000	     80.09688521	      1.99138772	      5.53186363	    117.27558963	      2.04684517	      8.33382938	      1.26693608	      0.00000000	      0.00000000	    -68.11259642	     -5.78425862	    -15.74858852	     82.64309154	    -15.29826883	     25.72181251	     62.40419992	     42.18869680	      0.00000000	      0.00000000	     83.83898045	    -23.42254077	     22.81135594	     77.05203958	     46.89431517	      0.00000000	      0.00000000
      5.02500000	    -11.05969043	      7.92152979	      5.48138998	      0.18313686	      1.04964632	     -0.21434216	      0.00000000	      0.50000000	      0.00000000	      0.25000000	     33.31200181	    -11.66963330	      0.99300386	     31.47467967	      0.54933679	     -5.44112268	     -1.95116391	      0.00000000	      0.00000000	     81.39443526	      2.33923472	      5.41384097	    116.74847175	      2.03764523	      8.54764075	      1.67530660	      0.00000000	      0.00000000	    -68.02753574	     -5.89874511	    -16.06365706	     82.48345602	    -15.61035433	     25.45423356	     62.48225435	     42.23738156	      0.00000000	      0.00000000	     84.37916763	    -23.11897838	     23.22189821	     76.88620449	     46.88884107	      0.00000000	      0.00000000
      5.03000000	    -11.41731965	      8.05747498	      5.89673583	      0.18228072	      1.05044422	     -0.21403021	      0.00000000	      0.50000000	      0.00000000	      0.25000000	     33.37407860	    -11.92481855	      0.91563292	     32.16101251	      0.56131556	     -6.19871277	     -2.50473914	      0.00000000	      0.00000000	     82.50909747	      2.58606603	      5.24321108	    116.07013506	      2.02580602	      8.80547135	      1.89409742	      0.00000000	      0.00000000	    -67.99665902	     -5.97615804	    -16.29619108	     82.38724770	    -15.90912306	     25.16934771	     62.57499484	     42.27596861	      0.00000000	      0.00000000	     84.92809908	    -22.83579025	     23.59434947	     76.73917772	     46.88317911	      0.00000000	      0.00000000
      5.03500000	    -11.76908670	      8.24433359	      6.14054781	      0.18146708	      1.05145085	     -0.21342931	      0.00000000	      0.50000000	      0.00000000	      0.25000000	     33.55499254	    -12.06555044	      1.11123190	     32.95558019	      0.57518338	     -7.09871484	     -3.63673512	      0.00000000	      0.00000000	     83.39351684	      2.68887436	      4.93517851	    115.18693148	      2.01039121	      9.23686804	      2.08148985	      0.00000000	      0.00000000	    -68.00882757	     -6.51457426	    -15.77393688	     81.09277718	    -17.32291550	     23.35042144	     64.47188300	     42.97864052	      0.00000000	      0.00000000	     86.27298818	    -21.46668783	     25.60150052	     74.83598118	     46.60218694	      0.00000000	      0.00000000
      5.04000000	    -12.04540965	      8.31548847	      6.43132305	      0.18076121	      1.05248156	     -0.21329398	      0.00000000	      0.50000000	      0.00000000	      0.25000000	     33.81246321	    -12.20900853	      1.05970476	     34.10385242	      0.59522451	     -7.74086318	     -4.23116756	      0.00000000	      0.00000000	     84.11796933	      2.86415437	      4.75708304	    114.20799670	      1.99330557	      9.64022458	      2.19983456	      0.00000000	      0.00000000	    -68.08970071	     -6.55253953	    -15.97667752	     81.17430827	    -17.49394896	     23.20012856	     64.50644804	     43.01579273	      0.00000000	      0.00000000	     86.64121955	    -21.22420423	     25.58523563	     74.92399611	     46.59656474	      0.00000000	      0.00000000
      5.04500000	    -12.13902311	      8.44289314	      6.76973240	      0.17958582	      1.05399802	     -0.21334074	      0.00000000	      0.50000000	      0.00000000	      0.25000000	     33.99255610	    -12.39444495	      1.15355413	     35.43431643	      0.61844549	     -8.49034438	     -5.14560945	      0.00000000	      0.00000000	     84.43687688	      3.19613437	      4.49307278	    112.98595905	      1.97197699	     10.16285091	      2.17339245	      0.00000000	      0.00000000	    -68.38781995	     -6.54220606	    -16.19456132	     81.28355380	    -17.69499581	     22.94460855	     64.58249390	     43.05844369	      0.00000000	      0.00000000	     87.08979417	    -20.91823559	     25.65566529	     74.91052544	     46.57484063	      0.00000000	      0.00000000
      5.05000000	    -12.28029962	      8.55393214	      6.99275613	      0.17874541	      1.05557662	     -0.21316345	      0.00000000	      0.50000000	      0.00000000	      0.25000000	     34.32708270	    -12.44654126	      1.51229390	     36.90083734	      0.64404111	     -9.42213011	     -6.31889144	      0.00000000	      0.00000000	     84.59661500	      3.37881177	      4.20509795	    111.61680204	      1.94808070	     10.80978958	      2.07921220	      0.00000000	      0.00000000	    -68.60910036	     -6.63142117	    -16.31901176	     81.22369695	    -17.86290664	     22.54519658	     64.77689360	     43.14361644	      0.00000000	      0.00000000	     87.51204810	    -20.58827439	     25.79738042	     74.75271172	     46.51530411	      0.00000000	      0.00000000
